<?xml version="1.0" standalone="no"?>
<!DOCTYPE svg PUBLIC "-//W3C//DTD SVG 20010904//EN"
 "http://www.w3.org/TR/2001/REC-SVG-20010904/DTD/svg10.dtd">
<svg version="1.0" xmlns="http://www.w3.org/2000/svg"
 width="296.000000pt" height="296.000000pt" viewBox="0 0 296.000000 296.000000"
 preserveAspectRatio="xMidYMid meet">
<metadata>
Created by potrace 1.14, written by Peter Selinger 2001-2017
</metadata>
<g transform="translate(0.000000,296.000000) scale(0.100000,-0.100000)"
fill="#000000" stroke="none">
<path d="M1856 2799 c-112 -38 -218 -126 -279 -230 -15 -25 -65 -131 -112
-235 -47 -104 -92 -204 -100 -222 l-15 -33 -50 98 c-122 243 -290 440 -445
520 -129 66 -210 87 -345 87 -124 -1 -198 -19 -288 -71 -182 -107 -269 -345
-198 -544 31 -88 69 -141 180 -251 88 -88 98 -101 159 -228 108 -224 178 -462
276 -940 57 -283 76 -339 139 -423 123 -161 351 -232 576 -178 113 27 194 70
265 142 88 88 141 216 141 341 0 53 16 112 29 105 3 -1 42 -21 86 -42 l80 -40
295 0 c315 0 335 3 443 57 147 74 267 295 267 492 0 45 -7 104 -14 131 -13 42
-13 56 1 114 41 175 -29 410 -173 578 -58 68 -170 142 -262 173 -63 21 -72 28
-68 45 47 191 -34 402 -192 504 -114 73 -272 93 -396 50z m297 -58 c80 -31
167 -114 209 -199 29 -59 33 -78 36 -164 3 -71 -1 -111 -12 -145 -17 -51 -12
-63 30 -63 11 0 47 -9 78 -20 146 -50 265 -160 339 -313 68 -141 85 -258 57
-397 -11 -56 -10 -72 4 -119 57 -193 -58 -477 -231 -564 -87 -44 -180 -57
-420 -57 -278 0 -346 16 -440 104 l-33 30 -35 -77 c-28 -61 -35 -88 -35 -140
0 -110 -50 -227 -126 -299 -88 -82 -229 -132 -369 -132 -143 0 -242 36 -337
123 -88 81 -116 147 -168 406 -107 531 -181 785 -293 1010 -58 118 -106 183
-182 250 -82 72 -131 145 -156 234 -24 83 -24 143 0 220 50 162 162 259 341
297 193 40 457 -54 603 -215 105 -116 223 -307 292 -471 21 -50 40 -90 44 -90
3 0 42 82 85 183 179 412 232 500 343 570 110 70 255 84 376 38z"/>
<path d="M1956 2378 c-39 -40 -117 -215 -436 -972 -127 -302 -234 -555 -239
-563 -5 -9 -14 15 -26 69 -145 667 -291 1064 -476 1305 -76 98 -174 153 -271
153 -61 0 -88 -14 -88 -43 0 -25 3 -29 100 -122 111 -106 226 -303 307 -523
84 -229 139 -439 219 -827 25 -126 50 -240 55 -252 11 -30 69 -47 136 -38 86
11 106 42 83 127 -10 35 3 66 316 770 420 943 394 883 394 905 0 20 -18 43
-33 43 -5 0 -23 -15 -41 -32z"/>
<path d="M2280 1810 c-57 -10 -139 -60 -212 -131 -50 -47 -67 -70 -62 -82 9
-23 21 -21 58 10 75 64 179 82 231 41 35 -27 64 -92 65 -141 0 -46 -30 -108
-66 -136 -32 -25 -117 -58 -203 -77 -94 -21 -98 -23 -105 -41 -8 -19 19 -118
40 -150 14 -23 18 -23 227 -23 245 0 248 1 272 82 18 62 18 53 -1 72 -13 13
-46 16 -197 16 l-182 1 87 33 c214 81 312 185 294 313 -10 71 -69 168 -120
195 -31 17 -86 25 -126 18z"/>
</g>
</svg>
